<svg width="15" height="29" viewBox="0 0 15 29" fill="none" xmlns="http://www.w3.org/2000/svg">
<path d="M14.4289 21.4851C14.0703 21.8093 13.584 21.9914 13.0769 21.9914C12.5698 21.9914 12.0835 21.8093 11.7249 21.4851L7.5008 17.1203L3.27669 21.4837C3.09967 21.6464 2.88877 21.7757 2.65617 21.8643C2.42357 21.953 2.17387 21.9991 1.92146 22C1.66906 22.0009 1.41894 21.9567 1.18555 21.8698C0.95216 21.7829 0.740109 21.6551 0.561629 21.4937C0.383149 21.3323 0.241774 21.1406 0.145656 20.9296C0.0495385 20.7186 0.000581364 20.4925 0.00160914 20.2643C0.00263691 20.0361 0.0536289 19.8104 0.151644 19.6001C0.249659 19.3898 0.392758 19.1992 0.572685 19.0391L4.96729 14.5014L0.571092 9.96088C0.391164 9.80085 0.248066 9.61019 0.150051 9.3999C0.0520356 9.18962 0.00104363 8.96387 1.58527e-05 8.73568C-0.00101192 8.50749 0.0479452 8.28137 0.144063 8.07037C0.24018 7.85937 0.381556 7.66766 0.560036 7.50631C0.738516 7.34495 0.950567 7.21714 1.18396 7.13024C1.41735 7.04335 1.66746 6.99909 1.91987 7.00001C2.17227 7.00094 2.42198 7.04704 2.65458 7.13565C2.88718 7.22427 3.09807 7.35364 3.27509 7.5163L7.5008 11.8826L11.7249 7.5163C11.9019 7.35364 12.1128 7.22427 12.3454 7.13565C12.578 7.04704 12.8277 7.00094 13.0801 7.00001C13.3325 6.99909 13.5827 7.04335 13.816 7.13024C14.0494 7.21714 14.2615 7.34495 14.44 7.50631C14.6184 7.66766 14.7598 7.85937 14.8559 8.07037C14.9521 8.28137 15.001 8.50749 15 8.73568C14.999 8.96387 14.948 9.18962 14.8499 9.3999C14.7519 9.61019 14.6088 9.80085 14.4289 9.96088L10.0343 14.5014L14.4289 19.0391C14.6067 19.1997 14.7477 19.3903 14.8439 19.6002C14.9402 19.81 14.9897 20.035 14.9897 20.2621C14.9897 20.4893 14.9402 20.7142 14.8439 20.9241C14.7477 21.1339 14.6067 21.3246 14.4289 21.4851Z" fill="#F87171"/>
</svg>
