<svg xmlns="http://www.w3.org/2000/svg" width="40" height="40" viewBox="0 0 40 40" fill="none">
  <g clip-path="url(#clip0_2317_1765)">
    <path d="M21.2206 4.12814C20.939 3.73395 20.4844 3.5 20 3.5C19.5156 3.5 19.061 3.73395 18.7794 4.12814C17.5597 5.83569 16.2746 7.42755 15.0074 8.98803C14.9472 9.06224 14.8869 9.13641 14.8267 9.21054C13.6312 10.6823 12.4474 12.1397 11.4053 13.5957C9.21791 16.6515 7.5 19.9048 7.5 23.75C7.5 30.7597 13.0648 36.5 20 36.5C26.9352 36.5 32.5 30.7597 32.5 23.75C32.5 19.9048 30.7821 16.6515 28.5947 13.5957C27.5526 12.1397 26.3688 10.6823 25.1733 9.21052C25.1131 9.1364 25.0528 9.06223 24.9926 8.98803C23.7254 7.42755 22.4403 5.83569 21.2206 4.12814Z" stroke="white" stroke-width="3" stroke-linecap="round" stroke-linejoin="round"/>
    <path d="M21.2206 4.12814C20.939 3.73395 20.4844 3.5 20 3.5C19.5156 3.5 19.061 3.73395 18.7794 4.12814C17.5597 5.83569 16.2746 7.42755 15.0074 8.98803C14.9472 9.06224 14.8869 9.13641 14.8267 9.21054C13.6312 10.6823 12.4474 12.1397 11.4053 13.5957C9.21791 16.6515 7.5 19.9048 7.5 23.75C7.5 30.7597 13.0648 36.5 20 36.5C26.9352 36.5 32.5 30.7597 32.5 23.75C32.5 19.9048 30.7821 16.6515 28.5947 13.5957C27.5526 12.1397 26.3688 10.6823 25.1733 9.21052C25.1131 9.1364 25.0528 9.06223 24.9926 8.98803C23.7254 7.42755 22.4403 5.83569 21.2206 4.12814Z" stroke="black" stroke-width="3" stroke-linecap="round" stroke-linejoin="round"/>
    <path d="M8 21.5281C8 30.073 13.3726 37 20 37C26.6274 37 32 30.073 32 21.5281C32 21.5281 25.4545 24.9663 20 21.5281C14.5455 18.0899 8 21.5281 8 21.5281Z" fill="white"/>
    <path d="M8 21.5281C8 30.073 13.3726 37 20 37C26.6274 37 32 30.073 32 21.5281C32 21.5281 25.4545 24.9663 20 21.5281C14.5455 18.0899 8 21.5281 8 21.5281Z" fill="black"/>
  </g>
  <defs>
    <clipPath id="clip0_2317_1765">
      <rect width="40" height="40" fill="white"/>
    </clipPath>
  </defs>
</svg>