<svg viewBox="0 0 501 189" fill="none" xmlns="http://www.w3.org/2000/svg">
<path d="M0.872864 151.264V125.075L78.0213 3.18184H99.8608V40.4688H86.544L34.6087 122.766V124.187H142.297V151.264H0.872864ZM87.6094 185V143.274L87.9645 131.555V3.18184H119.037V185H87.6094Z" fill="url(#paint0_linear_0_1)"/>
<path d="M250.367 188.462C235.748 188.462 223.201 184.763 212.725 177.365C202.308 169.908 194.288 159.166 188.666 145.139C183.102 131.052 180.321 114.096 180.321 94.2685C180.38 74.4413 183.191 57.5734 188.755 43.6648C194.377 29.697 202.397 19.0436 212.814 11.7046C223.289 4.36555 235.807 0.696045 250.367 0.696045C264.926 0.696045 277.444 4.36555 287.92 11.7046C298.396 19.0436 306.416 29.697 311.979 43.6648C317.602 57.6326 320.413 74.5005 320.413 94.2685C320.413 114.155 317.602 131.141 311.979 145.227C306.416 159.254 298.396 169.967 287.92 177.365C277.503 184.763 264.986 188.462 250.367 188.462ZM250.367 160.675C261.73 160.675 270.697 155.082 277.267 143.896C283.895 132.65 287.21 116.108 287.21 94.2685C287.21 79.8272 285.701 67.6942 282.682 57.8693C279.664 48.0445 275.402 40.6463 269.898 35.6747C264.394 30.644 257.883 28.1286 250.367 28.1286C239.062 28.1286 230.125 33.7512 223.556 44.9965C216.986 56.1825 213.672 72.6066 213.613 94.2685C213.553 108.769 215.003 120.961 217.963 130.845C220.981 140.729 225.243 148.187 230.747 153.217C236.251 158.189 242.791 160.675 250.367 160.675Z" fill="url(#paint1_linear_0_1)"/>
<path d="M359.125 151.264V125.075L436.273 3.18184H458.113V40.4688H444.796L392.861 122.766V124.187H500.549V151.264H359.125ZM445.861 185V143.274L446.216 131.555V3.18184H477.289V185H445.861Z" fill="url(#paint2_linear_0_1)"/>
<path d="M261.995 107.97L268.256 89.1875C270.753 81.6975 272.001 77.9525 270.024 75.9756C268.047 73.9988 264.302 75.2471 256.812 77.7438L238.15 83.9644C233.986 85.3522 231.904 86.0461 231.272 87.5727C231.124 87.9315 231.034 88.3119 231.006 88.6993C230.889 90.3473 232.44 91.899 235.544 95.0022L236.109 95.5674C236.618 96.0768 236.873 96.3316 237.066 96.615C237.445 97.1742 237.661 97.8286 237.688 98.5038C237.702 98.8464 237.648 99.2026 237.541 99.9148C237.15 102.522 236.954 103.826 237.185 104.829C237.644 106.829 239.192 108.399 241.185 108.887C242.185 109.131 243.492 108.954 246.104 108.599L246.247 108.58C246.984 108.48 247.352 108.43 247.706 108.451C248.348 108.49 248.968 108.699 249.502 109.057C249.796 109.254 250.059 109.517 250.585 110.043L251.087 110.545C254.108 113.566 255.618 115.076 257.22 114.997C257.662 114.975 258.096 114.873 258.501 114.695C259.969 114.049 260.644 112.023 261.995 107.97Z" stroke="#303032" stroke-width="3"/>
<path d="M239 107L269 77" stroke="#303032" stroke-width="3" stroke-linecap="round"/>
<defs>
<linearGradient id="paint0_linear_0_1" x1="250.5" y1="-93" x2="250.5" y2="282" gradientUnits="userSpaceOnUse">
<stop/>
<stop offset="1" stop-opacity="0.5"/>
</linearGradient>
<linearGradient id="paint1_linear_0_1" x1="250.5" y1="-93" x2="250.5" y2="282" gradientUnits="userSpaceOnUse">
<stop/>
<stop offset="1" stop-opacity="0.5"/>
</linearGradient>
<linearGradient id="paint2_linear_0_1" x1="250.5" y1="-93" x2="250.5" y2="282" gradientUnits="userSpaceOnUse">
<stop/>
<stop offset="1" stop-opacity="0.5"/>
</linearGradient>
</defs>
</svg>
