<svg viewBox="0 0 416 118" fill="none" xmlns="http://www.w3.org/2000/svg">
<path d="M28.9429 24.6019C32.7278 24.6019 36.2529 25.2698 39.5182 26.6057C42.8578 27.9415 45.8263 29.7597 48.4238 32.0604V0H57.8859V53.6566C57.8859 57.6642 57.1067 61.4491 55.5482 65.0113C54.0639 68.4994 52.0231 71.5421 49.4256 74.1396C46.8282 76.7371 43.7484 78.8151 40.1862 80.3736C36.6982 81.8579 32.9504 82.6 28.9429 82.6C24.9355 82.6 21.1877 81.8579 17.6997 80.3736C14.2117 78.8151 11.1319 76.7371 8.46025 74.1396C5.8628 71.5421 3.78485 68.4994 2.22638 65.0113C0.742127 61.4491 0 57.6642 0 53.6566C0 49.6491 0.742127 45.9013 2.22638 42.4132C3.78485 38.8509 5.8628 35.7711 8.46025 33.1736C11.1319 30.5019 14.2117 28.4239 17.6997 26.9396C21.1877 25.3811 24.9355 24.6019 28.9429 24.6019ZM28.9429 34.1755C26.2713 34.1755 23.7481 34.695 21.3733 35.734C18.9984 36.6987 16.9205 38.0717 15.1394 39.8528C13.4325 41.634 12.0596 43.7119 11.0206 46.0868C9.9816 48.4616 9.46212 50.9849 9.46212 53.6566C9.46212 56.3283 9.9816 58.8516 11.0206 61.2264C12.0596 63.6013 13.4325 65.6792 15.1394 67.4604C16.9205 69.1673 18.9984 70.5402 21.3733 71.5792C23.7481 72.6182 26.2713 73.1377 28.9429 73.1377C31.6146 73.1377 34.1378 72.6182 36.5126 71.5792C38.8874 70.5402 40.9654 69.1673 42.7465 67.4604C44.5276 65.6792 45.9005 63.6013 46.8653 61.2264C47.9043 58.8516 48.4238 56.3283 48.4238 53.6566C48.4238 50.9849 47.9043 48.4616 46.8653 46.0868C45.9005 43.7119 44.5276 41.634 42.7465 39.8528C40.9654 38.0717 38.8874 36.6987 36.5126 35.734C34.1378 34.695 31.6146 34.1755 28.9429 34.1755Z" fill="black"/>
<path d="M116.347 49.2038C115.753 47.1258 114.862 45.1962 113.675 43.4151C112.562 41.5597 111.189 40.0013 109.556 38.7396C107.923 37.4038 106.068 36.3648 103.99 35.6226C101.986 34.8805 99.8343 34.5094 97.5337 34.5094C95.2331 34.5094 93.0438 34.8805 90.9659 35.6226C88.9622 36.3648 87.1439 37.4038 85.5113 38.7396C83.8786 40.0013 82.4685 41.5597 81.2811 43.4151C80.0937 45.1962 79.2403 47.1258 78.7208 49.2038H116.347ZM97.5337 82.934C93.5262 82.934 89.7414 82.1918 86.1792 80.7075C82.6912 79.1491 79.6114 77.0711 76.9397 74.4736C74.3423 71.8019 72.2643 68.722 70.7058 65.234C69.2216 61.7459 68.4795 57.9981 68.4795 53.9906C68.4795 49.983 69.2216 46.1981 70.7058 42.6358C72.2643 39.0736 74.3423 35.9937 76.9397 33.3962C79.6114 30.7987 82.6912 28.7579 86.1792 27.2736C89.7414 25.7151 93.5262 24.9359 97.5337 24.9359C101.541 24.9359 105.289 25.7151 108.777 27.2736C112.339 28.7579 115.419 30.7987 118.016 33.3962C120.614 35.9937 122.655 39.0736 124.139 42.6358C125.697 46.1981 126.477 49.983 126.477 53.9906C126.477 54.5101 126.477 55.0667 126.477 55.6604C126.477 56.2541 126.402 57.256 126.254 58.666H78.7208C79.2403 60.8182 80.0937 62.7849 81.2811 64.566C82.4685 66.3472 83.8786 67.9057 85.5113 69.2415C87.1439 70.5774 88.9622 71.6163 90.9659 72.3585C93.0438 73.1006 95.2331 73.4717 97.5337 73.4717C99.3148 73.4717 101.096 73.0264 102.877 72.1358C104.658 71.1711 106.365 69.9094 107.998 68.3509L114.677 75.0302C112.228 77.405 109.519 79.3346 106.551 80.8189C103.656 82.2289 100.651 82.934 97.5337 82.934Z" fill="black"/>
<path d="M137.07 0.111319H146.532V67.1264C146.532 68.8333 147.312 70.2805 148.87 71.4679C150.503 72.6553 152.432 73.2491 154.659 73.2491V82.7113C152.21 82.7113 149.909 82.3031 147.757 81.4868C145.679 80.6704 143.824 79.5572 142.191 78.1472C140.632 76.7371 139.371 75.1044 138.406 73.2491C137.516 71.3195 137.07 69.2786 137.07 67.1264V0.111319Z" fill="black"/>
<path d="M161.421 25.9377H170.995V81.5981H161.421V25.9377ZM161.421 0.111319H170.995V13.0245H161.421V0.111319Z" fill="black"/>
<path d="M209.176 24.9359C213.184 24.9359 216.931 25.7151 220.419 27.2736C223.982 28.7579 227.061 30.7987 229.659 33.3962C232.331 35.9937 234.409 39.0736 235.893 42.6358C237.451 46.1981 238.231 49.983 238.231 53.9906C238.231 59.334 236.932 64.195 234.334 68.5736C231.811 72.9522 228.36 76.4031 223.982 78.9264C226.134 81.0044 227.915 83.4906 229.325 86.3849C230.735 89.3535 231.44 92.4704 231.44 95.7358C231.44 98.7786 230.809 101.636 229.548 104.308C228.286 107.053 226.542 109.428 224.316 111.432C222.089 113.436 219.492 115.031 216.523 116.219C213.629 117.406 210.512 118 207.173 118V108.538C209.176 108.538 211.069 108.204 212.85 107.536C214.705 106.868 216.301 105.94 217.636 104.753C218.972 103.565 220.011 102.192 220.753 100.634C221.57 99.1497 221.978 97.517 221.978 95.7358C221.978 93.9547 221.644 92.2849 220.976 90.7264C220.308 89.2421 219.38 87.9063 218.193 86.7189C217.006 85.5314 215.633 84.6038 214.074 83.9359C212.59 83.2679 210.957 82.934 209.176 82.934C205.169 82.934 201.421 82.1918 197.933 80.7075C194.445 79.1491 191.365 77.0711 188.694 74.4736C186.096 71.8019 184.018 68.722 182.46 65.234C180.975 61.7459 180.233 57.9981 180.233 53.9906C180.233 49.983 180.975 46.1981 182.46 42.6358C184.018 39.0736 186.096 35.9937 188.694 33.3962C191.365 30.7987 194.445 28.7579 197.933 27.2736C201.421 25.7151 205.169 24.9359 209.176 24.9359ZM209.176 34.5094C206.505 34.5094 203.981 35.0289 201.607 36.0679C199.232 37.0327 197.154 38.4057 195.373 40.1868C193.666 41.9679 192.293 44.0459 191.254 46.4208C190.215 48.7956 189.695 51.3189 189.695 53.9906C189.695 56.6623 190.215 59.1855 191.254 61.5604C192.293 63.9352 193.666 66.0132 195.373 67.7943C197.154 69.5013 199.232 70.8742 201.607 71.9132C203.981 72.9522 206.505 73.4717 209.176 73.4717C211.922 73.4717 214.482 72.9522 216.857 71.9132C219.232 70.8742 221.273 69.5013 222.98 67.7943C224.761 66.0132 226.134 63.9352 227.099 61.5604C228.138 59.1855 228.657 56.6623 228.657 53.9906C228.657 51.3189 228.138 48.7956 227.099 46.4208C226.134 44.0459 224.761 41.9679 222.98 40.1868C221.273 38.4057 219.232 37.0327 216.857 36.0679C214.482 35.0289 211.922 34.5094 209.176 34.5094Z" fill="black"/>
<path d="M295.283 49.2038C294.69 47.1258 293.799 45.1962 292.612 43.4151C291.498 41.5597 290.125 40.0013 288.493 38.7396C286.86 37.4038 285.005 36.3648 282.927 35.6226C280.923 34.8805 278.771 34.5094 276.47 34.5094C274.17 34.5094 271.98 34.8805 269.903 35.6226C267.899 36.3648 266.081 37.4038 264.448 38.7396C262.815 40.0013 261.405 41.5597 260.218 43.4151C259.03 45.1962 258.177 47.1258 257.657 49.2038H295.283ZM276.47 82.934C272.463 82.934 268.678 82.1918 265.116 80.7075C261.628 79.1491 258.548 77.0711 255.876 74.4736C253.279 71.8019 251.201 68.722 249.642 65.234C248.158 61.7459 247.416 57.9981 247.416 53.9906C247.416 49.983 248.158 46.1981 249.642 42.6358C251.201 39.0736 253.279 35.9937 255.876 33.3962C258.548 30.7987 261.628 28.7579 265.116 27.2736C268.678 25.7151 272.463 24.9359 276.47 24.9359C280.478 24.9359 284.226 25.7151 287.714 27.2736C291.276 28.7579 294.356 30.7987 296.953 33.3962C299.55 35.9937 301.591 39.0736 303.076 42.6358C304.634 46.1981 305.413 49.983 305.413 53.9906C305.413 54.5101 305.413 55.0667 305.413 55.6604C305.413 56.2541 305.339 57.256 305.191 58.666H257.657C258.177 60.8182 259.03 62.7849 260.218 64.566C261.405 66.3472 262.815 67.9057 264.448 69.2415C266.081 70.5774 267.899 71.6163 269.903 72.3585C271.98 73.1006 274.17 73.4717 276.47 73.4717C278.251 73.4717 280.033 73.0264 281.814 72.1358C283.595 71.1711 285.302 69.9094 286.934 68.3509L293.613 75.0302C291.164 77.405 288.456 79.3346 285.487 80.8189C282.593 82.2289 279.587 82.934 276.47 82.934Z" fill="black"/>
<path d="M345.395 24.7132C349.403 24.7132 353.15 25.4925 356.638 27.0509C360.201 28.5352 363.28 30.5761 365.878 33.1736C368.549 35.7711 370.627 38.8509 372.112 42.4132C373.67 45.9755 374.449 49.7604 374.449 53.7679V81.5981H364.876V53.7679C364.876 51.0962 364.356 48.573 363.317 46.1981C362.353 43.8233 360.98 41.7453 359.199 39.9641C357.492 38.183 355.451 36.8101 353.076 35.8453C350.701 34.8063 348.141 34.2868 345.395 34.2868C342.723 34.2868 340.2 34.8063 337.825 35.8453C335.451 36.8101 333.373 38.183 331.591 39.9641C329.885 41.7453 328.512 43.8233 327.473 46.1981C326.434 48.573 325.914 51.0962 325.914 53.7679V81.5981H316.452V53.7679C316.452 49.7604 317.194 45.9755 318.678 42.4132C320.237 38.8509 322.315 35.7711 324.912 33.1736C327.584 30.5761 330.664 28.5352 334.152 27.0509C337.64 25.4925 341.388 24.7132 345.395 24.7132Z" fill="black"/>
<path d="M384.942 12.5792H394.515V26.1604H413.996V35.6226H394.515V66.9038C394.515 68.5365 395.072 69.9465 396.185 71.134C397.373 72.2472 398.82 72.8038 400.527 72.8038C402.234 72.8038 403.644 72.0245 404.757 70.466C405.944 68.9075 406.538 67.0151 406.538 64.7887H416C416 67.2377 415.592 69.5384 414.776 71.6906C413.959 73.7686 412.846 75.6239 411.436 77.2566C410.1 78.8151 408.467 80.0767 406.538 81.0415C404.683 81.9321 402.679 82.3774 400.527 82.3774C398.375 82.3774 396.334 81.9692 394.404 81.1528C392.549 80.3365 390.916 79.2233 389.506 77.8132C388.096 76.4031 386.983 74.7704 386.167 72.9151C385.35 71.0597 384.942 69.056 384.942 66.9038V12.5792Z" fill="black"/>
</svg>