<svg xmlns="http://www.w3.org/2000/svg" width="15" height="16" viewBox="0 0 15 16" fill="none">
<path fill-rule="evenodd" clip-rule="evenodd" d="M4.92384 0.384766C4.07383 0.384766 3.38477 1.07383 3.38477 1.92384V4.00003H4.61603V1.92384C4.61603 1.75384 4.75384 1.61603 4.92384 1.61603H13.077C13.247 1.61603 13.3848 1.75384 13.3848 1.92384V11.077C13.3848 11.247 13.247 11.3848 13.077 11.3848H11.0005V12.616H13.077C13.927 12.616 14.616 11.927 14.616 11.077V1.92384C14.616 1.07383 13.927 0.384766 13.077 0.384766H4.92384Z" fill="#AEAEB2"/>
<path fill-rule="evenodd" clip-rule="evenodd" d="M4.92384 0.384766C4.07383 0.384766 3.38477 1.07383 3.38477 1.92384V4.00003H4.61603V1.92384C4.61603 1.75384 4.75384 1.61603 4.92384 1.61603H13.077C13.247 1.61603 13.3848 1.75384 13.3848 1.92384V11.077C13.3848 11.247 13.247 11.3848 13.077 11.3848H11.0005V12.616H13.077C13.927 12.616 14.616 11.927 14.616 11.077V1.92384C14.616 1.07383 13.927 0.384766 13.077 0.384766H4.92384Z" fill="black" fill-opacity="0.2"/>
<rect x="1" y="4" width="10" height="11" rx="0.923446" stroke="#AEAEB2" stroke-width="1.5"/>
<rect x="1" y="4" width="10" height="11" rx="0.923446" stroke="black" stroke-opacity="0.2" stroke-width="1.5"/>
</svg>