<svg viewBox="0 0 26 26" fill="none" xmlns="http://www.w3.org/2000/svg">
<circle cx="13" cy="13" r="11.96" transform="rotate(-180 13 13)" stroke="black" stroke-width="2.08"/>
<path d="M13.5934 10.6846C14.1678 10.6846 14.6334 11.1502 14.6334 11.7246V17.3113C14.6334 17.8857 15.0991 18.3513 15.6734 18.3513H16.4551C16.8443 18.3513 17.1599 18.6669 17.1599 19.0561C17.1599 19.4454 16.8443 19.7609 16.4551 19.7609H10.5847C10.1954 19.7609 9.87988 19.4454 9.87988 19.0561C9.87988 18.6669 10.1954 18.3513 10.5847 18.3513H11.6216C12.196 18.3513 12.6616 17.8857 12.6616 17.3113V13.1342C12.6616 12.5598 12.196 12.0942 11.6216 12.0942H10.6727C10.2835 12.0942 9.96791 11.7786 9.96791 11.3894C9.96791 11.0001 10.2835 10.6846 10.6727 10.6846H13.5934Z" fill="black"/>
<circle cx="13.26" cy="7.54023" r="1.3" fill="black"/>
</svg>