<svg viewBox="0 0 16 16" fill="none" xmlns="http://www.w3.org/2000/svg">
<circle cx="8" cy="8" r="7.5" stroke="#FF6A6A"/>
<path d="M8.00044 3.27295C8.31924 3.27295 8.57645 3.53368 8.57212 3.85244L8.50148 9.0514C8.49775 9.32546 8.27453 9.54568 8.00044 9.54568C7.72636 9.54568 7.50313 9.32546 7.49941 9.0514L7.42877 3.85244C7.42444 3.53368 7.68165 3.27295 8.00044 3.27295ZM8.00044 12.0684C7.79022 12.0684 7.60982 11.9931 7.45925 11.8426C7.30868 11.692 7.2334 11.5116 7.2334 11.3014C7.2334 11.0911 7.30868 10.9107 7.45925 10.7602C7.60982 10.6096 7.79022 10.5343 8.00044 10.5343C8.21067 10.5343 8.39107 10.6096 8.54164 10.7602C8.69221 10.9107 8.76749 11.0911 8.76749 11.3014C8.76749 11.4406 8.73198 11.5684 8.66096 11.6849C8.59277 11.8014 8.50044 11.8951 8.38397 11.9661C8.27033 12.0343 8.14249 12.0684 8.00044 12.0684Z" fill="#FF6A6A"/>
</svg>
