<svg viewBox="0 0 10 10" fill="none" xmlns="http://www.w3.org/2000/svg">
<circle cx="5" cy="5" r="4.625" stroke="#3A3A3C" stroke-width="0.75"/>
<path d="M4.99991 2.04565C5.19916 2.04565 5.35991 2.20861 5.35721 2.40784L5.31306 5.65719C5.31073 5.82847 5.17121 5.96611 4.99991 5.96611C4.82861 5.96611 4.68909 5.82848 4.68677 5.65719L4.64262 2.40784C4.63991 2.20861 4.80067 2.04565 4.99991 2.04565ZM4.99991 7.54281C4.86852 7.54281 4.75577 7.49576 4.66167 7.40166C4.56756 7.30755 4.52051 7.1948 4.52051 7.06341C4.52051 6.93202 4.56756 6.81927 4.66167 6.72516C4.75577 6.63106 4.86852 6.58401 4.99991 6.58401C5.1313 6.58401 5.24405 6.63106 5.33816 6.72516C5.43226 6.81927 5.47931 6.93202 5.47931 7.06341C5.47931 7.15041 5.45712 7.23031 5.41273 7.30311C5.37012 7.37591 5.31241 7.4345 5.23961 7.47889C5.16859 7.52151 5.08869 7.54281 4.99991 7.54281Z" fill="#3A3A3C"/>
</svg>
