<svg xmlns="http://www.w3.org/2000/svg" width="30" height="30" viewBox="0 0 30 30" fill="none">
<path d="M6.45994 26.5036L2.69075 27.965C2.49494 28.0416 2.31546 27.9924 2.15229 27.8172C2 27.653 1.96193 27.4724 2.03807 27.2754L3.58817 23.63L21.4062 5.71506L24.2616 8.60509L6.45994 26.5036ZM25.6975 7.19291L22.8094 4.30288L24.4574 2.66082C24.8708 2.25578 25.2896 2.03684 25.7138 2.00399C26.1489 1.97115 26.5514 2.14083 26.9213 2.51303L27.476 3.07134C27.8459 3.45448 28.0199 3.85953 27.9982 4.28646C27.9764 4.7134 27.7589 5.14034 27.3455 5.56727L25.6975 7.19291Z" fill="black"/>
</svg>